<svg width="106" height="106" viewBox="0 0 106 106" fill="none" xmlns="http://www.w3.org/2000/svg">
<g clip-path="url(#clip0_17_38)">
<path d="M53 99.375C40.7006 99.375 28.9049 94.4891 20.2079 85.7921C11.5109 77.0951 6.625 65.2994 6.625 53C6.625 40.7006 11.5109 28.9049 20.2079 20.2079C28.9049 11.5109 40.7006 6.625 53 6.625C65.2994 6.625 77.0951 11.5109 85.7921 20.2079C94.4891 28.9049 99.375 40.7006 99.375 53C99.375 65.2994 94.4891 77.0951 85.7921 85.7921C77.0951 94.4891 65.2994 99.375 53 99.375ZM53 106C67.0565 106 80.5372 100.416 90.4767 90.4767C100.416 80.5372 106 67.0565 106 53C106 38.9435 100.416 25.4628 90.4767 15.5233C80.5372 5.58391 67.0565 0 53 0C38.9435 0 25.4628 5.58391 15.5233 15.5233C5.58391 25.4628 0 38.9435 0 53C0 67.0565 5.58391 80.5372 15.5233 90.4767C25.4628 100.416 38.9435 106 53 106Z" fill="black"/>
<path d="M60.2649 42.5412L45.0937 44.4426L44.5504 46.9601L47.5317 47.51C49.4794 47.9737 49.8637 48.676 49.4397 50.6171L44.5504 73.5926C43.2652 79.5352 45.2461 82.331 49.9034 82.331C53.5141 82.331 57.7077 80.6615 59.6091 78.3692L60.1921 75.6132C58.8671 76.7792 56.9326 77.243 55.6473 77.243C53.8254 77.243 53.1629 75.9644 53.6333 73.7119L60.2649 42.5412ZM60.7287 28.7083C60.7287 30.4653 60.0307 32.1504 58.7883 33.3928C57.5458 34.6353 55.8607 35.3333 54.1037 35.3333C52.3466 35.3333 50.6615 34.6353 49.4191 33.3928C48.1767 32.1504 47.4787 30.4653 47.4787 28.7083C47.4787 26.9512 48.1767 25.2661 49.4191 24.0237C50.6615 22.7812 52.3466 22.0833 54.1037 22.0833C55.8607 22.0833 57.5458 22.7812 58.7883 24.0237C60.0307 25.2661 60.7287 26.9512 60.7287 28.7083Z" fill="black"/>
</g>
<defs>
<clipPath id="clip0_17_38">
<rect width="106" height="106" fill="white"/>
</clipPath>
</defs>
</svg>
