<svg width="26" height="26" viewBox="0 0 26 26" fill="none" xmlns="http://www.w3.org/2000/svg">
<g clip-path="url(#clip0_8_50)">
<rect width="26" height="26" fill="white"/>
<path fill-rule="evenodd" clip-rule="evenodd" d="M16.25 20.3125C16.25 20.528 16.1644 20.7347 16.012 20.887C15.8597 21.0394 15.653 21.125 15.4375 21.125H2.4375C2.22201 21.125 2.01535 21.0394 1.86298 20.887C1.7106 20.7347 1.625 20.528 1.625 20.3125V5.6875C1.625 5.47201 1.7106 5.26535 1.86298 5.11298C2.01535 4.9606 2.22201 4.875 2.4375 4.875H15.4375C15.653 4.875 15.8597 4.9606 16.012 5.11298C16.1644 5.26535 16.25 5.47201 16.25 5.6875V8.9375C16.25 9.15299 16.3356 9.35965 16.488 9.51202C16.6403 9.6644 16.847 9.75 17.0625 9.75C17.278 9.75 17.4847 9.6644 17.637 9.51202C17.7894 9.35965 17.875 9.15299 17.875 8.9375V5.6875C17.875 5.04103 17.6182 4.42105 17.1611 3.96393C16.704 3.50681 16.084 3.25 15.4375 3.25H2.4375C1.79103 3.25 1.17105 3.50681 0.713927 3.96393C0.256807 4.42105 0 5.04103 0 5.6875L0 20.3125C0 20.959 0.256807 21.579 0.713927 22.0361C1.17105 22.4932 1.79103 22.75 2.4375 22.75H15.4375C16.084 22.75 16.704 22.4932 17.1611 22.0361C17.6182 21.579 17.875 20.959 17.875 20.3125V17.0625C17.875 16.847 17.7894 16.6403 17.637 16.488C17.4847 16.3356 17.278 16.25 17.0625 16.25C16.847 16.25 16.6403 16.3356 16.488 16.488C16.3356 16.6403 16.25 16.847 16.25 17.0625V20.3125Z" fill="black"/>
<path fill-rule="evenodd" clip-rule="evenodd" d="M26.3043 13.8471C26.3799 13.7716 26.44 13.682 26.4809 13.5832C26.5219 13.4845 26.543 13.3787 26.543 13.2718C26.543 13.165 26.5219 13.0591 26.4809 12.9604C26.44 12.8617 26.3799 12.7721 26.3043 12.6966L21.4293 7.82159C21.2767 7.66902 21.0698 7.58331 20.854 7.58331C20.6382 7.58331 20.4313 7.66902 20.2788 7.82159C20.1262 7.97416 20.0405 8.18108 20.0405 8.39684C20.0405 8.6126 20.1262 8.81952 20.2788 8.97209L23.7676 12.4593H9.479C9.26352 12.4593 9.05685 12.5449 8.90448 12.6973C8.75211 12.8497 8.6665 13.0564 8.6665 13.2718C8.6665 13.4873 8.75211 13.694 8.90448 13.8464C9.05685 13.9987 9.26352 14.0843 9.479 14.0843H23.7676L20.2788 17.5716C20.1262 17.7242 20.0405 17.9311 20.0405 18.1468C20.0405 18.3626 20.1262 18.5695 20.2788 18.7221C20.4313 18.8747 20.6382 18.9604 20.854 18.9604C21.0698 18.9604 21.2767 18.8747 21.4293 18.7221L26.3043 13.8471Z" fill="black"/>
</g>
<defs>
<clipPath id="clip0_8_50">
<rect width="26" height="26" fill="white"/>
</clipPath>
</defs>
</svg>
