<svg width="100" height="100" viewBox="0 0 100 100" fill="none" xmlns="http://www.w3.org/2000/svg">
<path fill-rule="evenodd" clip-rule="evenodd" d="M99.8423 54C99.9468 52.6804 100 51.3464 100 50C100 22.3858 77.6142 0 50 0C22.3858 0 0 22.3858 0 50C0 51.3464 0.0532195 52.6804 0.15767 54H99.8423ZM80.0049 90H19.9951C28.3526 96.2791 38.7418 100 50 100C61.2582 100 71.6474 96.2791 80.0049 90Z" fill="black"/>
<path d="M19.184 74.0572L25.104 65.7772L26.144 64.9372H19.184V62.4972H28.884V64.9372L22.924 73.2972L21.904 74.0572H28.884V76.4972H19.184V74.0572ZM30.2904 67.0772C30.8238 66.8372 31.4571 66.6505 32.1904 66.5172C32.9238 66.3705 33.6904 66.2972 34.4904 66.2972C35.1838 66.2972 35.7638 66.3839 36.2304 66.5572C36.6971 66.7172 37.0638 66.9505 37.3304 67.2572C37.6104 67.5639 37.8038 67.9305 37.9104 68.3572C38.0304 68.7839 38.0904 69.2639 38.0904 69.7972C38.0904 70.3839 38.0704 70.9772 38.0304 71.5772C37.9904 72.1639 37.9638 72.7439 37.9504 73.3172C37.9504 73.8905 37.9704 74.4505 38.0104 74.9972C38.0504 75.5305 38.1504 76.0372 38.3104 76.5172H36.1904L35.7704 75.1372H35.6704C35.4038 75.5505 35.0304 75.9105 34.5504 76.2172C34.0838 76.5105 33.4771 76.6572 32.7304 76.6572C32.2638 76.6572 31.8438 76.5905 31.4704 76.4572C31.0971 76.3105 30.7771 76.1105 30.5104 75.8572C30.2438 75.5905 30.0371 75.2839 29.8904 74.9372C29.7438 74.5772 29.6704 74.1772 29.6704 73.7372C29.6704 73.1239 29.8038 72.6105 30.0704 72.1972C30.3504 71.7705 30.7438 71.4305 31.2504 71.1772C31.7704 70.9105 32.3838 70.7305 33.0904 70.6372C33.8104 70.5305 34.6104 70.4972 35.4904 70.5372C35.5838 69.7905 35.5304 69.2572 35.3304 68.9372C35.1304 68.6039 34.6838 68.4372 33.9904 68.4372C33.4704 68.4372 32.9171 68.4905 32.3304 68.5972C31.7571 68.7039 31.2838 68.8439 30.9104 69.0172L30.2904 67.0772ZM33.5904 74.5172C34.1104 74.5172 34.5238 74.4039 34.8304 74.1772C35.1371 73.9372 35.3638 73.6839 35.5104 73.4172V72.1172C35.0971 72.0772 34.6971 72.0705 34.3104 72.0972C33.9371 72.1239 33.6038 72.1839 33.3104 72.2772C33.0171 72.3705 32.7838 72.5039 32.6104 72.6772C32.4371 72.8505 32.3504 73.0705 32.3504 73.3372C32.3504 73.7105 32.4571 74.0039 32.6704 74.2172C32.8971 74.4172 33.2038 74.5172 33.5904 74.5172ZM40.2723 66.4972H42.1723L42.4723 67.6972H42.5523C42.899 67.1905 43.3057 66.8172 43.7723 66.5772C44.2523 66.3372 44.8323 66.2172 45.5123 66.2172C46.7657 66.2172 47.7057 66.6172 48.3323 67.4172C48.959 68.2039 49.2723 69.4772 49.2723 71.2372C49.2723 72.0905 49.1723 72.8639 48.9723 73.5572C48.7723 74.2372 48.4723 74.8172 48.0723 75.2972C47.6857 75.7772 47.2057 76.1439 46.6323 76.3972C46.0723 76.6505 45.4257 76.7772 44.6923 76.7772C44.279 76.7772 43.939 76.7439 43.6723 76.6772C43.4057 76.6239 43.139 76.5305 42.8723 76.3972V80.4972H40.2723V66.4972ZM44.7323 68.4172C44.2257 68.4172 43.8257 68.5439 43.5323 68.7972C43.2523 69.0505 43.0323 69.4305 42.8723 69.9372V74.0972C43.059 74.2439 43.259 74.3639 43.4723 74.4572C43.699 74.5372 43.9923 74.5772 44.3523 74.5772C45.099 74.5772 45.659 74.3172 46.0323 73.7972C46.4057 73.2639 46.5923 72.3905 46.5923 71.1772C46.5923 70.2972 46.4457 69.6172 46.1523 69.1372C45.859 68.6572 45.3857 68.4172 44.7323 68.4172ZM59.0731 75.6372C58.6731 75.9572 58.1264 76.2305 57.4331 76.4572C56.7531 76.6705 56.0264 76.7772 55.2531 76.7772C53.6398 76.7772 52.4598 76.3105 51.7131 75.3772C50.9664 74.4305 50.5931 73.1372 50.5931 71.4972C50.5931 69.7372 51.0131 68.4172 51.8531 67.5372C52.6931 66.6572 53.8731 66.2172 55.3931 66.2172C55.8998 66.2172 56.3931 66.2839 56.8731 66.4172C57.3531 66.5505 57.7798 66.7705 58.1531 67.0772C58.5264 67.3839 58.8264 67.7972 59.0531 68.3172C59.2798 68.8372 59.3931 69.4839 59.3931 70.2572C59.3931 70.5372 59.3731 70.8372 59.3331 71.1572C59.3064 71.4772 59.2598 71.8105 59.1931 72.1572H53.1931C53.2331 72.9972 53.4464 73.6305 53.8331 74.0572C54.2331 74.4839 54.8731 74.6972 55.7531 74.6972C56.2998 74.6972 56.7864 74.6172 57.2131 74.4572C57.6531 74.2839 57.9864 74.1105 58.2131 73.9372L59.0731 75.6372ZM55.3531 68.2972C54.6731 68.2972 54.1664 68.5039 53.8331 68.9172C53.5131 69.3172 53.3198 69.8572 53.2531 70.5372H56.9731C57.0264 69.8172 56.9131 69.2639 56.6331 68.8772C56.3664 68.4905 55.9398 68.2972 55.3531 68.2972ZM65.8894 70.7172L66.2494 73.0972H66.3494L66.7494 70.6972L69.4294 62.4972H72.3094L67.1094 76.5972H65.1494L59.9094 62.4972H63.0894L65.8894 70.7172ZM71.2962 71.4972C71.2962 69.8039 71.7096 68.5039 72.5362 67.5972C73.3629 66.6772 74.5229 66.2172 76.0162 66.2172C76.8162 66.2172 77.5096 66.3439 78.0962 66.5972C78.6829 66.8505 79.1696 67.2105 79.5562 67.6772C79.9429 68.1305 80.2296 68.6839 80.4162 69.3372C80.6162 69.9905 80.7162 70.7105 80.7162 71.4972C80.7162 73.1905 80.3029 74.4972 79.4762 75.4172C78.6629 76.3239 77.5096 76.7772 76.0162 76.7772C75.2162 76.7772 74.5229 76.6505 73.9362 76.3972C73.3496 76.1439 72.8562 75.7905 72.4562 75.3372C72.0696 74.8705 71.7762 74.3105 71.5762 73.6572C71.3896 73.0039 71.2962 72.2839 71.2962 71.4972ZM73.9762 71.4972C73.9762 71.9372 74.0162 72.3439 74.0962 72.7172C74.1762 73.0905 74.2962 73.4172 74.4562 73.6972C74.6162 73.9772 74.8229 74.1972 75.0762 74.3572C75.3429 74.5039 75.6562 74.5772 76.0162 74.5772C76.6962 74.5772 77.2029 74.3305 77.5362 73.8372C77.8696 73.3439 78.0362 72.5639 78.0362 71.4972C78.0362 70.5772 77.8829 69.8372 77.5762 69.2772C77.2696 68.7039 76.7496 68.4172 76.0162 68.4172C75.3762 68.4172 74.8762 68.6572 74.5162 69.1372C74.1562 69.6172 73.9762 70.4039 73.9762 71.4972Z" fill="black"/>
<rect x="34.9648" y="25.5428" width="29.5363" height="21.1109" fill="white"/>
<ellipse cx="38.515" cy="22.7974" rx="10.4608" ry="10.1294" fill="white"/>
<circle cx="49.733" cy="20.2414" r="11.6441" fill="white"/>
<circle cx="61.3774" cy="22.8921" r="10.2241" fill="white"/>
</svg>
